<svg xmlns="http://www.w3.org/2000/svg" width="143" height="21" fill="none"><g fill="var(--color-magenta-900)"><path d="M11.233 10.977c-.728-2.997.23-6.433 6.345-7.636.46 0 2.07.802 3.182.783 12.862-.096 21.89-.306 27.047-.42 8.684-.21 13.419-.669 22.179-.707 7.82 0 4.064.668 11.885.668 5.29 0 6.709-.649 11.98-.725 9.239-.134 10.773.153 20.012 0 4.409 0 8.856-.172 13.246-.65 2.619-.435 5.3-.346 7.884.264a19.98 19.98 0 0 1 7.164 3.288c1.629 1.26.556 6.987-.595 8.362-1.916 2.31-5.329 1.183-7.763.534a66.83 66.83 0 0 0-17.252-2.157c-12.364 0-13.15.687-25.533.992-6.172.172-12.383-.248-18.555-.095-9.297.248-6.997.687-16.294.993-6.767.21-5.75-.115-12.594.19a67.823 67.823 0 0 0-7.898.917c-.536 0-4.562.21-5.137.153a67.89 67.89 0 0 0-6.824 0c-.958.076-12.709 3.226-12.479-4.754"/><path d="M0 11.302c.134 2.806 17.463 10.805 18.594 9.545 1.13-1.26.613-19.339-.978-20.847C16.64-.82-.114 8.8 0 11.302"/></g></svg>