<svg width="24" height="25" viewBox="0 0 24 25" fill="none" xmlns="http://www.w3.org/2000/svg">
<g id="player-pause">
<g id="Vector">
<path d="M6 6.3252C6 6.05998 6.10536 5.80563 6.29289 5.61809C6.48043 5.43055 6.73478 5.3252 7 5.3252H9C9.26522 5.3252 9.51957 5.43055 9.70711 5.61809C9.89464 5.80563 10 6.05998 10 6.3252V18.3252C10 18.5904 9.89464 18.8448 9.70711 19.0323C9.51957 19.2198 9.26522 19.3252 9 19.3252H7C6.73478 19.3252 6.48043 19.2198 6.29289 19.0323C6.10536 18.8448 6 18.5904 6 18.3252V6.3252Z" stroke="var(--color-magenta-900)" stroke-width="2" stroke-linecap="round" stroke-linejoin="round"/>
<path d="M14 6.3252C14 6.05998 14.1054 5.80563 14.2929 5.61809C14.4804 5.43055 14.7348 5.3252 15 5.3252H17C17.2652 5.3252 17.5196 5.43055 17.7071 5.61809C17.8946 5.80563 18 6.05998 18 6.3252V18.3252C18 18.5904 17.8946 18.8448 17.7071 19.0323C17.5196 19.2198 17.2652 19.3252 17 19.3252H15C14.7348 19.3252 14.4804 19.2198 14.2929 19.0323C14.1054 18.8448 14 18.5904 14 18.3252V6.3252Z" stroke="var(--color-magenta-900)" stroke-width="2" stroke-linecap="round" stroke-linejoin="round"/>
</g>
</g>
</svg>
