<svg xmlns="http://www.w3.org/2000/svg" width="143" height="22" fill="none"><g fill="var(--color-magenta-900)"><path d="M131.767 10.523c.728 2.997-.23 6.433-6.345 7.636-.46 0-2.07-.802-3.182-.782-12.862.095-21.891.305-27.047.42-8.684.21-13.419.668-22.179.706-7.82 0-4.064-.668-11.884-.668-5.291 0-6.71.649-11.981.725-9.24.134-10.773-.153-20.012 0-4.41 0-8.856.172-13.246.65A20.015 20.015 0 0 1 .843 15.657c-1.629-1.26-.556-6.987.595-8.362 1.916-2.31 5.329-1.183 7.763-.534a66.83 66.83 0 0 0 17.252 2.157c12.364 0 13.15-.687 25.533-.993 6.172-.171 12.383.249 18.556.096 9.296-.248 6.996-.687 16.293-.993 6.767-.21 5.75.115 12.594-.19a67.72 67.72 0 0 0 7.898-.917c.536 0 4.562-.21 5.137-.153 2.273.115 4.551.115 6.824 0 .958-.076 12.709-3.226 12.479 4.754"/><path d="M143 10.198c-.134-2.806-17.463-10.805-18.594-9.545-1.131 1.26-.613 19.339.978 20.847.978.82 17.731-8.8 17.616-11.302"/></g></svg>