<svg xmlns="http://www.w3.org/2000/svg" width="66" height="9" fill="none"><g fill="#F0F" clip-path="url(#a)"><path d="M53.207 2.072a.597.597 0 0 1-.248 0c-.085 0-.202.091-.285.113-.154.042-.305.133-.462.162l-.656.112-1.003.127-1.167.134h-.125l-1.597.141c-.302.043-1.044.141-1.112.134-.069-.007-.779.141-.893.155-.045 0-.35.106-.601.148 0 .705.074 1.283.074 1.953.793-.12 1.588-.24 2.36-.353l4.45-.578c.398 0 .803.219 1.191.19.101-.01.2-.086.285-.218.086-.148.114-.113.143-.218a2 2 0 0 0 .034-.571c-.023-.642-.194-1.509-.388-1.431M41.006 3.679l-.836.091h-.111c-.174 0-.374.043-.57.078-2.282.254-4.54.444-6.81.705-.795.091-1.58.204-2.384.232-1.425.057-2.851.163-4.277.261-.676.043-1.12.176-2.024.148h-1.52c-.716.078-1.075.113-1.794.19-1.608.184-3.205.297-4.799.423h-1.258c-.684 0-1.274-.035-1.924.085-.6.113-1.118.197-1.785.183-1.075-.035-2.142.085-3.225.12-.856 0-1.666.057-2.475.085h-2.08a1.867 1.867 0 0 0-.55-.078 4.56 4.56 0 0 1-1.337-.077c-.197-.007-.67.26-.727.592-.02.183.02.416-.02.606C.443 7.76.74 8.5 1.005 8.5s.57-.078.84-.092c.272-.014.588 0 .882 0 .114 0 .231-.07.345-.112.06 0 .117-.05.174-.064h.231c.65 0 1.28-.099 1.979-.042 1.004.028 2.073-.12 3.114-.148 2.295-.092 4.634-.183 6.938-.247 1.465-.056 2.957-.26 4.382-.36 3.992-.288 7.962-.55 11.94-.972.989-.099 1.995-.19 2.974-.282 1.346-.127 2.355-.296 3.675-.296h.231c.39 0 .813-.05 1.232-.092a27.795 27.795 0 0 1 2.407-.267 9.31 9.31 0 0 0 .24-2.03c-.218 0-.414.035-.654.077-.294.05-.613.092-.93.106"/><path d="M52.112 2.474a1.01 1.01 0 0 1-.33 0c-.146 0-.423-.043-.571 0l-1.583.267c-1.575.207-3.162.414-4.759.62-.419.05-.84.064-1.257.078-.685 0-1.275 0-1.925.19-.596.149-1.115.261-1.782.275-1.075 0-2.142.205-3.222.303-.924.078-1.794.156-2.666.226a27.95 27.95 0 0 1-2.196.289c.185.434.336.95.445 1.523h2.201c1.007 0 2.07-.17 3.111-.268 2.295-.212 4.63-.43 6.935-.642 1.465-.113 2.951-.402 4.38-.57l3.22-.41a7.05 7.05 0 0 1 0-1.881m7.374-.571c.052.138.086.308.1.493a2.41 2.41 0 0 1-.02.55 2.793 2.793 0 0 1-.208.69c-.09.19-.195.327-.308.402-.285.099-.608-.303-.91-.303-.422 0-.841.205-1.26.29-.285.049-.55 0-.819.105a1.852 1.852 0 0 1-.732.07.759.759 0 0 0-.334 0c-.1.104-.208.156-.317.156-.285-.127-.37-1.565-.202-2.052.128-.373.445-.26.622-.26.253 0 .507.042.758 0 .61-.092 1.22 0 1.83-.078.26 0 .511-.17.768-.247a4.95 4.95 0 0 1 .73-.148c.057-.007.114.019.167.077a.714.714 0 0 1 .135.255m3.867.007c.015.247.015.5 0 .747a1.6 1.6 0 0 1-.114.521c-.078.192-.175.328-.281.397a.273.273 0 0 1-.324-.009 1.094 1.094 0 0 0-.818 0c-.292.123-.59.123-.881 0-.132-.07-.25-.246-.337-.5-.134-.423-.177-.959.037-1.276.259-.302.547-.412.83-.317.382.084.784-.38 1.18-.557.131-.062.266-.01.383.148.143.184.258.482.325.846m2.161.056a4.75 4.75 0 0 1-.097.592 1.67 1.67 0 0 1-.183.516c-.078.13-.168.208-.261.227-.094.02-.188-.021-.274-.118a1.16 1.16 0 0 1-.214-.435c-.154-.437-.18-1.585.04-1.917A.892.892 0 0 1 64.9.514c.302-.077.57.148.613 1.452"/></g><defs><clipPath id="a"><path fill="#fff" d="M.5 8.5v-8h65v8z"/></clipPath></defs></svg>