<svg width="24" height="25" viewBox="0 0 24 25" fill="none" xmlns="http://www.w3.org/2000/svg">
<g id="volume">
<path id="Vector" d="M15 8.32541C15.621 8.79114 16.125 9.39506 16.4721 10.0893C16.8193 10.7836 17 11.5492 17 12.3254C17 13.1016 16.8193 13.8672 16.4721 14.5615C16.125 15.2558 15.621 15.8597 15 16.3254M17.7 5.32541C18.744 6.16906 19.586 7.23553 20.1645 8.44673C20.7429 9.65793 21.0431 10.9832 21.0431 12.3254C21.0431 13.6676 20.7429 14.9929 20.1645 16.2041C19.586 17.4153 18.744 18.4818 17.7 19.3254M6 15.3254H4C3.73478 15.3254 3.48043 15.2201 3.29289 15.0325C3.10536 14.845 3 14.5906 3 14.3254V10.3254C3 10.0602 3.10536 9.80584 3.29289 9.61831C3.48043 9.43077 3.73478 9.32541 4 9.32541H6L9.5 4.82541C9.5874 4.65564 9.73265 4.52273 9.90949 4.4507C10.0863 4.37867 10.2831 4.37227 10.4643 4.43266C10.6454 4.49304 10.799 4.61622 10.8972 4.77995C10.9955 4.94368 11.0319 5.13715 11 5.32541V19.3254C11.0319 19.5137 10.9955 19.7071 10.8972 19.8709C10.799 20.0346 10.6454 20.1578 10.4643 20.2182C10.2831 20.2786 10.0863 20.2722 9.90949 20.2001C9.73265 20.1281 9.5874 19.9952 9.5 19.8254L6 15.3254Z" stroke="var(--color-magenta-900)" stroke-width="2" stroke-linecap="round" stroke-linejoin="round"/>
</g>
</svg>
