<?xml version="1.0" standalone="no"?>
<!DOCTYPE svg PUBLIC "-//W3C//DTD SVG 20010904//EN"
 "http://www.w3.org/TR/2001/REC-SVG-20010904/DTD/svg10.dtd">
<svg version="1.0" xmlns="http://www.w3.org/2000/svg"
 width="2500.000000pt" height="2500.000000pt" viewBox="0 0 2500.000000 2500.000000"
 preserveAspectRatio="xMidYMid meet">
<metadata>
Created by potrace 1.14, written by Peter Selinger 2001-2017
</metadata>
<g transform="translate(0.000000,2500.000000) scale(0.100000,-0.100000)"
fill="#000000" stroke="none">
<path d="M0 12500 l0 -12500 12500 0 12500 0 0 12500 0 12500 -12500 0 -12500
0 0 -12500z m2537 5788 c-4 -24 -16 -93 -27 -155 -100 -569 -105 -1304 -10
-1938 51 -344 102 -560 265 -1115 359 -1224 442 -1394 1319 -2705 209 -312
288 -439 310 -495 43 -115 74 -268 91 -460 36 -406 55 -512 117 -638 42 -85
133 -182 217 -232 183 -108 486 -154 866 -131 459 29 701 84 990 226 250 123
435 262 761 572 236 226 296 279 375 333 55 38 57 41 83 127 235 780 665 1490
1249 2059 739 722 1676 1183 2689 1323 234 32 409 44 668 44 349 0 633 -28
958 -94 1128 -228 2129 -851 2847 -1774 161 -206 370 -536 486 -768 111 -219
244 -554 314 -787 25 -81 28 -87 73 -115 72 -46 170 -132 397 -348 324 -309
509 -449 760 -572 289 -142 531 -197 990 -226 380 -23 683 23 866 131 84 50
175 147 217 232 62 126 81 232 117 638 17 192 48 345 91 460 22 56 101 183
310 495 620 928 788 1210 959 1615 108 255 402 1189 510 1620 206 822 241
1785 93 2591 -12 65 -19 121 -16 125 14 13 83 -32 119 -79 237 -300 483 -1266
708 -2782 148 -998 165 -1383 80 -1855 -11 -63 -60 -299 -109 -525 -216 -994
-282 -1357 -364 -2000 -65 -503 -110 -727 -189 -945 -168 -462 -453 -866 -987
-1400 -254 -255 -430 -416 -781 -716 -287 -244 -543 -497 -689 -680 -58 -72
-163 -216 -234 -320 -161 -234 -237 -333 -313 -406 -247 -234 -634 -335 -1458
-378 -294 -15 -311 -15 -341 15 -21 21 -24 32 -19 58 11 58 82 190 216 403
397 628 598 990 794 1428 213 476 429 1132 454 1378 21 213 -30 341 -163 410
-62 33 -207 37 -317 9 -167 -42 -357 -151 -498 -286 -144 -138 -200 -233 -244
-412 -48 -192 -147 -342 -373 -565 -154 -152 -263 -245 -749 -643 -561 -460
-540 -441 -659 -600 -57 -77 -141 -185 -187 -240 -111 -134 -438 -459 -572
-571 -796 -658 -1695 -1027 -2712 -1115 -180 -15 -590 -15 -770 0 -1420 122
-2670 826 -3508 1974 -96 130 -97 132 -687 614 -403 329 -523 433 -674 581
-226 223 -325 373 -373 565 -44 179 -100 274 -244 412 -141 135 -331 244 -498
286 -110 28 -255 24 -317 -9 -133 -69 -184 -197 -163 -410 25 -246 241 -902
454 -1378 196 -438 397 -800 794 -1428 134 -213 205 -345 216 -403 5 -26 2
-37 -19 -58 -30 -30 -47 -30 -341 -15 -824 43 -1211 144 -1458 378 -76 73
-152 172 -313 406 -71 104 -176 248 -234 320 -146 183 -402 436 -689 680 -351
300 -527 461 -781 716 -534 534 -819 938 -987 1400 -79 218 -124 442 -189 945
-82 643 -148 1006 -364 2000 -101 470 -124 589 -145 770 -19 167 -19 471 0
695 52 590 240 1773 390 2450 165 743 356 1239 506 1313 49 24 52 22 46 -25z"/>
<path d="M12185 14533 c-1200 -98 -2260 -661 -3011 -1599 -410 -512 -702
-1140 -834 -1796 -62 -307 -74 -447 -74 -838 0 -391 12 -531 74 -838 259
-1283 1094 -2372 2270 -2962 418 -209 873 -346 1367 -412 147 -20 213 -22 523
-22 391 0 531 12 838 74 1283 259 2372 1094 2962 2270 209 418 346 873 412
1367 20 147 22 213 22 523 0 391 -12 531 -74 838 -259 1283 -1094 2372 -2270
2962 -417 209 -877 348 -1362 411 -130 17 -226 22 -478 24 -173 1 -337 1 -365
-2z m481 -1143 c541 -44 1016 -253 1524 -674 517 -427 1387 -1350 1828 -1937
116 -155 272 -387 272 -404 0 -17 -156 -249 -272 -404 -441 -587 -1311 -1510
-1828 -1937 -358 -297 -715 -495 -1070 -595 -400 -113 -840 -113 -1240 0 -414
117 -811 355 -1255 755 -526 473 -1286 1298 -1661 1802 -105 140 -254 363
-254 379 0 16 149 239 254 379 445 598 1341 1547 1867 1978 605 495 1201 708
1835 658z"/>
<path d="M12320 12670 c-644 -54 -1251 -351 -1955 -956 -447 -385 -838 -823
-1072 -1202 -82 -134 -81 -130 -38 -209 279 -509 1014 -1257 1650 -1682 459
-307 833 -461 1282 -527 146 -22 480 -22 626 0 394 58 727 183 1117 419 680
413 1505 1227 1817 1793 l37 67 -32 62 c-156 300 -560 777 -982 1159 -707 641
-1317 972 -1952 1061 -132 18 -376 26 -498 15z m411 -956 c492 -84 901 -441
1058 -921 83 -253 83 -573 0 -826 -136 -417 -459 -740 -876 -876 -253 -83
-573 -83 -826 0 -417 136 -740 459 -876 876 -83 253 -83 573 0 826 156 477
565 835 1054 921 112 20 349 20 466 0z"/>
</g>
</svg>
